<svg preserveAspectRatio="xMidYMid meet" viewBox="0 0 1080 1080" xmlns="http://www.w3.org/2000/svg"><g transform="matrix(.1 0 0 -.1 0 1080)"><path d="m0 5400v-5400h5400 5400v5400 5400h-5400-5400zm5651 4164 239-321-54-2249c-35-1469-51-2270-45-2311 16-116 68-221 153-312 35-36 44-52 31-48-11 3-45 11-75 17-138 31-255 121-315 244-19 39-39 94-44 121-5 28-38 967-73 2088-34 1120-65 2037-68 2037s-34-917-68-2037c-35-1121-68-2060-73-2088-32-175-180-325-359-365-30-6-64-14-75-17-13-4-4 12 31 48 85 91 137 196 153 312 6 41-10 843-45 2311l-54 2250 53 70c29 39 138 185 241 324 104 139 193 251 199 249 5-1 117-147 248-323zm-2536-1391c104-85 275-180 470-263 141-60 361-171 442-224 299-194 553-577 592-896 21-161 9-447-25-650-9-52-46-212-82-355-64-256-65-262-66-400 0-128 2-147 28-225 32-97 74-186 118-246l30-42-17-74c-9-40-20-106-25-146-4-40-10-76-14-79-3-3-41 2-86 11-152 30-298 18-401-35-61-31-148-118-179-179-61-121-59-266 5-396 64-131 219-250 376-290 65-17 202-22 284-10l50 6 103-97 103-98-36-50c-47-65-98-166-119-234-18-62-21-168-6-223 24-86 116-163 209-175 41-6 41-6 41-48 0-23 9-77 20-120s20-80 20-82c0-9-113-1-163 12-127 33-219 101-309 230-59 84-72 89-284 106-299 25-805-18-1124-97-104-25-138-30-147-21-8 9-2 41 28 132 125 382 167 655 176 1150 7 380-6 647-53 1055-76 670-93 1087-70 1650 28 664 31 1040 12 1210-15 126-29 212-52 310-5 22 2 18 48-26 29-28 76-69 103-91zm4705 41c-11-50-27-156-36-235-19-169-16-547 12-1209 23-563 6-980-70-1650-47-408-60-675-53-1055 9-495 51-768 176-1150 30-91 36-123 28-132-9-9-43-4-147 21-319 79-825 122-1124 97-212-17-225-22-284-106-90-129-182-197-309-230-50-13-163-21-163-12 0 2 9 39 20 82s20 97 20 120c0 42 0 42 41 48 93 12 185 89 209 175 15 55 12 161-6 223-21 68-72 169-119 234l-36 50 103 98 103 97 50-6c82-12 219-7 284 10 157 40 312 159 376 290 64 130 66 275 5 396-31 61-118 148-179 179-103 53-249 65-401 35-45-9-83-14-86-11-4 3-10 39-14 79-5 40-16 106-25 146l-17 74 30 42c44 60 86 149 118 246 26 78 28 97 28 225-1 138-2 144-66 400-36 143-73 303-82 355-34 203-46 489-25 650 39 319 293 702 592 896 81 53 301 164 442 224 259 110 468 241 589 369 16 17 31 30 32 28 1-1-6-43-16-93zm-3180-4010c18-34 35-52 65-65 67-31 75-27 75 36v55h620 620v-55c0-63 8-67 75-36 30 13 47 31 65 65l25 46h97 96l106-62 105-63 1-56v-56l-108-61-108-62h-94-95l-20 37c-24 45-78 83-116 83-28 0-29-1-29-55v-55h-620-620v55c0 54-1 55-29 55-38 0-92-38-116-83l-20-37h-95-94l-108 62-108 61v56l1 56 102 62 102 61 100 1 100 1zm972-401c22-20 23-70 1-95-15-16-35-18-211-18-168 0-198 2-214 17-22 20-23 70-1 95 15 16 35 18 211 18 168 0 198-2 214-17zm62-185c9-12 16-36 16-53s-7-41-16-53c-15-22-18-22-274-22s-259 0-274 22c-9 12-16 36-16 53s7 41 16 53c15 22 18 22 274 22s259 0 274-22zm47-204c7-9 14-33 14-54 0-72 9-70-335-70s-335-2-335 70-9 70 335 70c272 0 309-2 321-16zm25-205c14-16 19-36 19-84s-5-68-19-84c-19-21-26-21-346-21s-327 0-346 21c-14 16-19 36-19 84s5 68 19 84c19 21 26 21 346 21s327 0 346-21zm-22-271c9-12 16-34 16-48s-7-36-16-48c-15-22-16-22-324-22s-309 0-324 22c-9 12-16 34-16 48s7 36 16 48c15 22 16 22 324 22s309 0 324-22zm-38-218c9-27 9-42 0-65l-12-30-272-3-271-2-12 22c-15 27-14 70 1 98 11 20 16 20 283 18l272-3zm-77-202 103-32-4-72c-8-124-76-225-190-286-61-32-175-32-236 0-114 61-182 162-190 286l-4 72 103 32c57 17 118 33 134 36 68 10 183-5 284-36zm-317-493c72-33 145-33 217 0 30 14 57 23 60 19 7-6 101-357 97-361-2-2-31 22-67 53-157 137-241 137-398 0-36-31-65-55-67-53s81 326 91 355c6 16 4 16 67-13z"/><path d="m3485 7468c3-24 19-239 35-478 28-405 30-481 33-1100 1-366-2-779-6-917l-9-253 136 81c75 44 162 90 193 101 70 25 205 29 276 9 42-12 50-12 58 0 19 30 9 91-25 152-19 34-48 100-64 147-73 208-71 398 10 925 27 178 32 238 33 395v185l-38 109c-21 60-51 135-68 167-45 85-152 213-242 290-61 53-235 176-314 223-10 5-12-4-8-36z"/><path d="m3482 3934c-19-261-53-488-101-657l-19-69 25 7c80 20 240 37 388 42 181 6 357-10 507-46l75-18 6 66c3 36 8 73 12 82 5 14-6 17-77 22-125 9-299 73-398 146-168 124-271 263-365 498l-41 102z"/><path d="m7193 7429c-155-102-261-193-344-297-82-102-118-168-166-308l-38-109v-185c1-157 6-217 33-395 81-527 83-717 10-925-16-47-45-113-64-147-34-61-44-122-25-152 8-12 16-12 58 0 71 20 206 16 276-9 31-11 118-57 193-101l136-81-9 253c-4 138-7 556-5 927 3 649 4 693 36 1140 18 256 32 466 32 467-1 1-57-34-123-78z"/><path d="m7286 4059c-36-106-135-295-189-361-53-66-130-140-197-189-99-73-273-137-398-146-71-5-82-8-77-22 4-9 9-46 12-82l6-66 75 18c150 36 326 52 507 46 148-5 308-22 388-42l24-6-23 88c-46 171-78 387-97 652l-12 164z"/></g></svg>