<svg xmlns="http://www.w3.org/2000/svg" viewBox="0 0 122.88 122.88"><path d="m18.43 0h86.02c10.18 0 18.43 8.25 18.43 18.43v86.02c0 10.18-8.25 18.43-18.43 18.43h-86.02c-10.18 0-18.43-8.25-18.43-18.43v-86.02c0-10.18 8.25-18.43 18.43-18.43z" fill="#f7931a"/><path d="m93.84 51.84c1.44-10.32-6-15.36-16.32-18.96l3.36-13.2-8.16-2.16-3.12 12.96-6.72-1.68 3.36-12.96-8.4-2.16-3.12 13.44-5.28-1.2-11.28-2.88-1.92 8.64 5.76 1.44c3.36.96 4.08 3.36 3.6 5.04l-3.6 15.12.72.24-.72-.24-5.28 21.36c-.48 1.2-1.44 2.64-3.84 1.92l-5.76-1.44-4.08 9.36 16.32 4.08-3.12 13.68 7.92 1.92 3.36-13.2 6.24 1.44-3.12 13.2 8.16 2.16 3.36-13.44c13.92 2.64 24.48 1.44 28.8-11.04 3.36-10.08-.24-15.84-7.68-19.68 5.28-1.2 9.36-4.8 10.56-11.76zm-18.48 25.92c-2.64 9.84-19.68 4.8-25.2 3.36l4.56-18c5.52 1.44 23.28 4.08 20.64 14.64zm2.16-26.4c-2.16 9.36-16.08 4.8-20.88 3.6l4.08-16.32c4.8 1.2 19.44 3.36 16.8 12.72z" fill="#fff"/></svg>