<svg viewBox="0 0 560 400" xmlns="http://www.w3.org/2000/svg" xmlns:xlink="http://www.w3.org/1999/xlink"><linearGradient id="a" gradientTransform="matrix(-75 174.99 174.99 75 -78011.5859 7758.8169)" gradientUnits="userSpaceOnUse" x1="-199.0146" x2="-198.0146" y1="361.3958" y2="361.3958"><stop offset="0" stop-color="#37aee2"/><stop offset="1" stop-color="#1e96c8"/></linearGradient><g transform="matrix(1.25 0 0 1.25 130 50)"><circle clip-rule="evenodd" cx="120" cy="120" fill="url(#a)" fill-rule="evenodd" r="120"/><path d="m44.7 125.9c14-7.7 29.7-14.2 44.3-20.7 25.2-10.6 50.4-21.1 76-30.8 5-1.7 13.9-3.3 14.8 4.1-.5 10.4-2.4 20.8-3.8 31.1-3.4 22.8-7.4 45.5-11.3 68.2-1.3 7.6-10.8 11.5-16.9 6.6-14.6-9.8-29.2-19.6-43.6-29.6-4.7-4.8-.3-11.7 3.9-15.1 12-11.8 24.7-21.9 36.1-34.3 3.1-7.4-6-1.2-9 .7-16.4 11.3-32.4 23.3-49.8 33.3-8.8 4.9-19.2.7-28-2-7.9-3.2-19.5-6.5-12.7-11.5z" fill="#fff"/></g></svg>