<svg xmlns="http://www.w3.org/2000/svg" viewBox="0 0 256 256"><linearGradient xmlns:xlink="http://www.w3.org/1999/xlink" id="b" x1="7.64" x2="292.86" y1="127.999" y2="128" gradientUnits="userSpaceOnUse"><stop offset="0" stop-color="#fff" stop-opacity=".667"/><stop offset=".241" stop-color="#d7d7d7" stop-opacity=".219"/><stop offset=".459" stop-color="#4d4d4d" stop-opacity="0"/><stop offset=".719" stop-color="#fff" stop-opacity=".51"/><stop offset=".874" stop-color="#f2f2f2" stop-opacity=".4"/><stop offset="1" stop-color="#fff" stop-opacity=".624"/></linearGradient><linearGradient xmlns:xlink="http://www.w3.org/1999/xlink" id="a" x1="128" x2="125.549" y1="193.736" y2="90.252" gradientUnits="userSpaceOnUse"><stop offset="0" stop-color="#ffd500"/><stop offset=".568" stop-color="#ffd500"/><stop offset=".697" stop-color="#005bbb"/><stop offset="1" stop-color="#005bbb"/></linearGradient><path fill="url(#a)" d="M248.36 37.567c0 1.854-14.891-10.205-37.309-11.054-22.416-2.352-52.355 6.506-82.452 15.426C98.502 50.84 68.25 59.83 45.21 57.5 22.17 56.646 6.343 44.472 5.095 45.1v171.941c1.235-.802 16.907 11.481 39.798 12.395 22.89 2.4 52.999-6.569 83.107-15.507 30.11-8.93 60.219-17.857 83.108-15.438 22.89.933 38.563 13.21 39.797 12.41V38.958c-1.274-.722-2.544-1.392-2.544-1.392z"/><path fill="#fff" d="M7.641 107.332c80.24 40.703 160.48-49.264 240.718-8.56V57.83C168.119 17.124 87.88 107.091 7.641 66.39z"/><path fill="#ffd500" d="M248.36 206.96c-80.24-42.452-160.478 51.376-240.717 8.927V49.041c80.239 42.45 160.479-51.379 240.718-8.926z"/><path fill="#005bbb" d="M203.2 28.8C138.005 28.06 72.794 82.496 7.6 48.667V132.4c80.24 42.855 160.561-51.926 240.8-9.067V39.867c-15.045-7.808-30.155-10.896-45.2-11.067z"/><path fill="url(#b)" d="M248.36 206.96c-80.24-42.452-160.48 51.377-240.72 8.925V49.04c80.24 42.45 160.48-51.378 240.72-8.925z"/></svg>